{
  "source": "C:\\Users\\Peter\\Desktop\\stuff\\MIUN\\quantitative_research\\video_compression\\videos\\BVI-HD\\BVI-HD_CDVL_videos\\ORIG\\ParkPlay_1920x1080_50fps.mp4",
  "output": "C:\\Users\\Peter\\Desktop\\stuff\\MIUN\\quantitative_research\\video_compression\\compressed_videos\\BVI-HD\\vp9\\4\\ParkPlay_1920x1080_50fps_vp9.webm",
  "codec": "vp9",
  "ok": "Input #0, mov,mp4,m4a,3gp,3g2,mj2, from 'C:\\Users\\Peter\\Desktop\\stuff\\MIUN\\quantitative_research\\video_compression\\videos\\BVI-HD\\BVI-HD_CDVL_videos\\ORIG\\ParkPlay_1920x1080_50fps.mp4':\n  Metadata:\n    major_brand     : isom\n    minor_version   : 512\n    compatible_brands: isomiso2avc1mp41\n    encoder         : Lavf54.28.101\n  Duration: 00:00:05.00, start: 0.000000, bitrate: 620563 kb/s\n  Stream #0:0[0x1](und): Video: h264 (High 4:4:4 Predictive) (avc1 / 0x31637661), yuv420p(progressive), 1920x1080, 620558 kb/s, 50 fps, 50 tbr, 50 tbn (default)\n    Metadata:\n      handler_name    : VideoHandler\n      vendor_id       : [0][0][0][0]\n[out#0/webm @ 000002c84c86f040] Codec AVOption b:a (set bitrate (in bits/s)) has not been used for any stream. The most likely reason is either wrong type (e.g. a video option with no video streams) or that it is a private option of some decoder which was not actually used for any stream.\nStream mapping:\n  Stream #0:0 -> #0:0 (h264 (native) -> vp9 (libvpx-vp9))\nPress [q] to stop, [?] for help\n[libvpx-vp9 @ 000002c84c670a80] v1.15.2-100-g40561f514\nOutput #0, webm, to 'C:\\Users\\Peter\\Desktop\\stuff\\MIUN\\quantitative_research\\video_compression\\compressed_videos\\BVI-HD\\vp9\\4\\ParkPlay_1920x1080_50fps_vp9.webm':\n  Metadata:\n    major_brand     : isom\n    minor_version   : 512\n    compatible_brands: isomiso2avc1mp41\n    encoder         : Lavf62.3.100\n  Stream #0:0(und): Video: vp9, yuv420p(tv, progressive), 1920x1080, q=2-31, 4000 kb/s, 50 fps, 1k tbn (default)\n    Metadata:\n      encoder         : Lavc62.11.100 libvpx-vp9\n      handler_name    : VideoHandler\n      vendor_id       : [0][0][0][0]\n    Side data:\n      cpb: bitrate max/min/avg: 0/0/0 buffer size: 4000000 vbv_delay: N/A\nframe=    0 fps=0.0 q=0.0 size=       0KiB time=N/A bitrate=N/A speed=N/A elapsed=0:00:00.51    \nframe=    0 fps=0.0 q=0.0 size=       0KiB time=N/A bitrate=N/A speed=N/A elapsed=0:00:01.09    \nframe=    5 fps=3.1 q=57.0 size=       1KiB time=00:00:00.10 bitrate=  50.7kbits/s speed=0.0616x elapsed=0:00:01.62    \nframe=   10 fps=4.6 q=55.0 size=       1KiB time=00:00:00.20 bitrate=  25.4kbits/s speed=0.0929x elapsed=0:00:02.15    \nframe=   14 fps=5.2 q=53.0 size=       1KiB time=00:00:00.28 bitrate=  18.1kbits/s speed=0.104x elapsed=0:00:02.69    \nframe=   18 fps=5.5 q=54.0 size=       1KiB time=00:00:00.36 bitrate=  14.1kbits/s speed=0.111x elapsed=0:00:03.25    \nframe=   22 fps=5.8 q=53.0 size=       1KiB time=00:00:00.44 bitrate=  11.5kbits/s speed=0.116x elapsed=0:00:03.78    \nframe=   26 fps=6.0 q=53.0 size=       1KiB time=00:00:00.52 bitrate=   9.8kbits/s speed=0.119x elapsed=0:00:04.35    \nframe=   30 fps=6.1 q=54.0 size=       1KiB time=00:00:00.60 bitrate=   8.5kbits/s speed=0.122x elapsed=0:00:04.91    \nframe=   33 fps=6.1 q=54.0 size=       1KiB time=00:00:00.66 bitrate=   7.7kbits/s speed=0.121x elapsed=0:00:05.44    \nframe=   38 fps=6.4 q=53.0 size=       1KiB time=00:00:00.76 bitrate=   6.7kbits/s speed=0.128x elapsed=0:00:05.95    \nframe=   41 fps=6.3 q=53.0 size=       1KiB time=00:00:00.82 bitrate=   6.2kbits/s speed=0.127x elapsed=0:00:06.47    \nframe=   45 fps=6.4 q=53.0 size=       1KiB time=00:00:00.90 bitrate=   5.6kbits/s speed=0.129x elapsed=0:00:06.99    \nframe=   49 fps=6.5 q=54.0 size=       1KiB time=00:00:00.98 bitrate=   5.2kbits/s speed=0.13x elapsed=0:00:07.52    \nframe=   52 fps=6.5 q=41.0 size=       1KiB time=00:00:01.04 bitrate=   4.9kbits/s speed=0.129x elapsed=0:00:08.04    \nframe=   56 fps=6.5 q=55.0 size=       1KiB time=00:00:01.12 bitrate=   4.5kbits/s speed=0.131x elapsed=0:00:08.57    \nframe=   60 fps=6.6 q=54.0 size=       1KiB time=00:00:01.20 bitrate=   4.2kbits/s speed=0.132x elapsed=0:00:09.09    \nframe=   63 fps=6.5 q=54.0 size=       1KiB time=00:00:01.26 bitrate=   4.0kbits/s speed=0.131x elapsed=0:00:09.62    \nframe=   67 fps=6.6 q=54.0 size=       1KiB time=00:00:01.34 bitrate=   3.8kbits/s speed=0.132x elapsed=0:00:10.15    \nframe=   70 fps=6.6 q=41.0 size=       1KiB time=00:00:01.40 bitrate=   3.6kbits/s speed=0.131x elapsed=0:00:10.67    \nframe=   74 fps=6.6 q=52.0 size=       1KiB time=00:00:01.48 bitrate=   3.4kbits/s speed=0.132x elapsed=0:00:11.20    \nframe=   78 fps=6.7 q=51.0 size=       1KiB time=00:00:01.56 bitrate=   3.3kbits/s speed=0.133x elapsed=0:00:11.72    \nframe=   81 fps=6.6 q=52.0 size=       1KiB time=00:00:01.62 bitrate=   3.1kbits/s speed=0.132x elapsed=0:00:12.27    \nframe=   86 fps=6.7 q=51.0 size=       1KiB time=00:00:01.72 bitrate=   2.9kbits/s speed=0.134x elapsed=0:00:12.80    \nframe=   89 fps=6.7 q=51.0 size=       1KiB time=00:00:01.78 bitrate=   2.8kbits/s speed=0.133x elapsed=0:00:13.34    \nframe=   93 fps=6.7 q=52.0 size=       1KiB time=00:00:01.86 bitrate=   2.7kbits/s speed=0.134x elapsed=0:00:13.86    \nframe=   95 fps=6.6 q=52.0 size=       1KiB time=00:00:01.90 bitrate=   2.7kbits/s speed=0.132x elapsed=0:00:14.38    \nframe=   99 fps=6.6 q=53.0 size=       1KiB time=00:00:01.98 bitrate=   2.6kbits/s speed=0.133x elapsed=0:00:14.88    \nframe=  102 fps=6.6 q=52.0 size=       1KiB time=00:00:02.04 bitrate=   2.5kbits/s speed=0.132x elapsed=0:00:15.41    \nframe=  105 fps=6.6 q=52.0 size=       1KiB time=00:00:02.10 bitrate=   2.4kbits/s speed=0.132x elapsed=0:00:15.93    \nframe=  109 fps=6.6 q=51.0 size=       1KiB time=00:00:02.18 bitrate=   2.3kbits/s speed=0.132x elapsed=0:00:16.45    \nframe=  112 fps=6.6 q=42.0 size=       1KiB time=00:00:02.24 bitrate=   2.3kbits/s speed=0.132x elapsed=0:00:16.99    \nframe=  115 fps=6.6 q=51.0 size=       1KiB time=00:00:02.30 bitrate=   2.2kbits/s speed=0.131x elapsed=0:00:17.49    \nframe=  118 fps=6.5 q=42.0 size=       1KiB time=00:00:02.36 bitrate=   2.1kbits/s speed=0.131x elapsed=0:00:18.01    \nframe=  122 fps=6.6 q=51.0 size=       1KiB time=00:00:02.44 bitrate=   2.1kbits/s speed=0.132x elapsed=0:00:18.55    \nframe=  125 fps=6.5 q=53.0 size=       1KiB time=00:00:02.50 bitrate=   2.0kbits/s speed=0.131x elapsed=0:00:19.10    \nframe=  128 fps=6.5 q=53.0 size=       1KiB time=00:00:02.56 bitrate=   2.0kbits/s speed=0.13x elapsed=0:00:19.63    \nframe=  130 fps=6.4 q=52.0 size=    1280KiB time=00:00:02.60 bitrate=4033.0kbits/s speed=0.129x elapsed=0:00:20.20    \nframe=  133 fps=6.4 q=51.0 size=    1280KiB time=00:00:02.66 bitrate=3942.0kbits/s speed=0.128x elapsed=0:00:20.73    \nframe=  136 fps=6.4 q=52.0 size=    1280KiB time=00:00:02.72 bitrate=3855.1kbits/s speed=0.128x elapsed=0:00:21.27    \nframe=  139 fps=6.4 q=52.0 size=    1280KiB time=00:00:02.78 bitrate=3771.9kbits/s speed=0.128x elapsed=0:00:21.77    \nframe=  142 fps=6.4 q=52.0 size=    1280KiB time=00:00:02.84 bitrate=3692.2kbits/s speed=0.127x elapsed=0:00:22.31    \nframe=  145 fps=6.3 q=52.0 size=    1280KiB time=00:00:02.90 bitrate=3615.8kbits/s speed=0.127x elapsed=0:00:22.85    \nframe=  148 fps=6.3 q=53.0 size=    1280KiB time=00:00:02.96 bitrate=3542.5kbits/s speed=0.127x elapsed=0:00:23.35    \nframe=  152 fps=6.4 q=53.0 size=    1280KiB time=00:00:03.04 bitrate=3449.3kbits/s speed=0.127x elapsed=0:00:23.88    \nframe=  155 fps=6.3 q=52.0 size=    1280KiB time=00:00:03.10 bitrate=3382.5kbits/s speed=0.127x elapsed=0:00:24.44    \nframe=  158 fps=6.3 q=53.0 size=    1280KiB time=00:00:03.16 bitrate=3318.3kbits/s speed=0.126x elapsed=0:00:24.99    \nframe=  161 fps=6.3 q=52.0 size=    1280KiB time=00:00:03.20 bitrate=3276.8kbits/s speed=0.125x elapsed=0:00:25.52    \nframe=  164 fps=6.3 q=52.0 size=    1280KiB time=00:00:03.28 bitrate=3196.9kbits/s speed=0.126x elapsed=0:00:26.08    \nframe=  167 fps=6.3 q=51.0 size=    1280KiB time=00:00:03.34 bitrate=3139.4kbits/s speed=0.125x elapsed=0:00:26.62    \nframe=  170 fps=6.3 q=52.0 size=    1280KiB time=00:00:03.40 bitrate=3084.0kbits/s speed=0.125x elapsed=0:00:27.14    \nframe=  173 fps=6.2 q=51.0 size=    1280KiB time=00:00:03.46 bitrate=3030.6kbits/s speed=0.125x elapsed=0:00:27.69    \nframe=  176 fps=6.2 q=52.0 size=    1280KiB time=00:00:03.52 bitrate=2978.9kbits/s speed=0.125x elapsed=0:00:28.24    \nframe=  178 fps=6.2 q=53.0 size=    1280KiB time=00:00:03.56 bitrate=2945.4kbits/s speed=0.124x elapsed=0:00:28.77    \nframe=  181 fps=6.2 q=52.0 size=    1280KiB time=00:00:03.62 bitrate=2896.6kbits/s speed=0.124x elapsed=0:00:29.29    \nframe=  184 fps=6.2 q=53.0 size=    1280KiB time=00:00:03.68 bitrate=2849.4kbits/s speed=0.123x elapsed=0:00:29.80    \nframe=  187 fps=6.2 q=53.0 size=    1280KiB time=00:00:03.74 bitrate=2803.7kbits/s speed=0.123x elapsed=0:00:30.33    \nframe=  190 fps=6.1 q=53.0 size=    1280KiB time=00:00:03.80 bitrate=2759.4kbits/s speed=0.123x elapsed=0:00:30.89    \nframe=  193 fps=6.1 q=52.0 size=    1280KiB time=00:00:03.86 bitrate=2716.5kbits/s speed=0.123x elapsed=0:00:31.42    \nframe=  196 fps=6.1 q=52.0 size=    1280KiB time=00:00:03.92 bitrate=2674.9kbits/s speed=0.123x elapsed=0:00:31.96    \nframe=  199 fps=6.1 q=51.0 size=    1280KiB time=00:00:03.98 bitrate=2634.6kbits/s speed=0.122x elapsed=0:00:32.50    \nframe=  202 fps=6.1 q=52.0 size=    1280KiB time=00:00:04.04 bitrate=2595.5kbits/s speed=0.122x elapsed=0:00:33.03    \nframe=  205 fps=6.1 q=52.0 size=    1280KiB time=00:00:04.10 bitrate=2557.5kbits/s speed=0.122x elapsed=0:00:33.56    \nframe=  208 fps=6.1 q=52.0 size=    1280KiB time=00:00:04.16 bitrate=2520.6kbits/s speed=0.122x elapsed=0:00:34.08    \nframe=  212 fps=6.1 q=52.0 size=    1280KiB time=00:00:04.24 bitrate=2473.1kbits/s speed=0.123x elapsed=0:00:34.59    \nframe=  214 fps=6.1 q=52.0 size=    1280KiB time=00:00:04.28 bitrate=2449.9kbits/s speed=0.122x elapsed=0:00:35.12    \nframe=  217 fps=6.1 q=51.0 size=    1280KiB time=00:00:04.34 bitrate=2416.1kbits/s speed=0.122x elapsed=0:00:35.64    \nframe=  220 fps=6.1 q=52.0 size=    1280KiB time=00:00:04.40 bitrate=2383.1kbits/s speed=0.122x elapsed=0:00:36.16    \nframe=  223 fps=6.1 q=52.0 size=    1280KiB time=00:00:04.46 bitrate=2351.1kbits/s speed=0.122x elapsed=0:00:36.69    \nframe=  226 fps=6.1 q=52.0 size=    1280KiB time=00:00:04.52 bitrate=2319.9kbits/s speed=0.121x elapsed=0:00:37.24    \nframe=  226 fps=6.0 q=52.0 size=    1280KiB time=00:00:04.52 bitrate=2319.9kbits/s speed=0.12x elapsed=0:00:37.76    \nframe=  226 fps=5.9 q=52.0 size=    1280KiB time=00:00:04.52 bitrate=2319.9kbits/s speed=0.118x elapsed=0:00:38.29    \nframe=  226 fps=5.8 q=52.0 size=    1280KiB time=00:00:04.52 bitrate=2319.9kbits/s speed=0.116x elapsed=0:00:38.82    \nframe=  226 fps=5.7 q=52.0 size=    1280KiB time=00:00:04.52 bitrate=2319.9kbits/s speed=0.115x elapsed=0:00:39.34    \nframe=  226 fps=5.7 q=52.0 size=    1280KiB time=00:00:04.52 bitrate=2319.9kbits/s speed=0.113x elapsed=0:00:39.87    \nframe=  226 fps=5.6 q=52.0 size=    1280KiB time=00:00:04.52 bitrate=2319.9kbits/s speed=0.112x elapsed=0:00:40.39    \nframe=  226 fps=5.5 q=52.0 size=    1280KiB time=00:00:04.52 bitrate=2319.9kbits/s speed=0.11x elapsed=0:00:40.92    \n[out#0/webm @ 000002c84c86f040] video:2740KiB audio:0KiB subtitle:0KiB other streams:0KiB global headers:0KiB muxing overhead: 0.088605%\nframe=  250 fps=6.1 q=52.0 Lsize=    2742KiB time=00:00:05.00 bitrate=4493.1kbits/s speed=0.121x elapsed=0:00:41.16    \n",
  "seconds": 41.46734952926636,
  "probe_out": {}
}